<svg xmlns="http://www.w3.org/2000/svg" width="1280" height="720" viewBox="0 0 1280 720" role="img" aria-label="problem solution split preview">
  <rect width="1280" height="720" fill="#f3f4f6"/>
  <rect x="74" y="74" width="1132" height="128" rx="20" fill="#111827"/>
  <rect x="120" y="118" width="662" height="40" rx="10" fill="#f8fafc" opacity="0.92"/>
  <rect x="74" y="226" width="536" height="396" rx="20" fill="#fee2e2"/>
  <rect x="670" y="226" width="536" height="396" rx="20" fill="#dcfce7"/>
  <rect x="116" y="272" width="452" height="28" rx="8" fill="#991b1b" opacity="0.72"/>
  <rect x="712" y="272" width="452" height="28" rx="8" fill="#166534" opacity="0.72"/>
  <rect x="116" y="326" width="412" height="22" rx="7" fill="#7f1d1d" opacity="0.45"/>
  <rect x="116" y="368" width="382" height="22" rx="7" fill="#7f1d1d" opacity="0.38"/>
  <rect x="116" y="410" width="398" height="22" rx="7" fill="#7f1d1d" opacity="0.32"/>
  <rect x="712" y="326" width="412" height="22" rx="7" fill="#14532d" opacity="0.45"/>
  <rect x="712" y="368" width="382" height="22" rx="7" fill="#14532d" opacity="0.38"/>
  <rect x="712" y="410" width="398" height="22" rx="7" fill="#14532d" opacity="0.32"/>
  <path d="M612 430 L668 430" stroke="#111827" stroke-width="10" stroke-linecap="round"/>
  <path d="M648 408 L680 430 L648 452" fill="none" stroke="#111827" stroke-width="10" stroke-linecap="round" stroke-linejoin="round"/>
  <rect x="348" y="528" width="586" height="62" rx="14" fill="#111827" opacity="0.84"/>
</svg>
