<svg xmlns="http://www.w3.org/2000/svg" width="1280" height="720" viewBox="0 0 1280 720" role="img" aria-label="real photo clean preview">
  <defs>
    <linearGradient id="g" x1="0" y1="0" x2="1" y2="1">
      <stop offset="0%" stop-color="#dbeafe"/>
      <stop offset="100%" stop-color="#f8fafc"/>
    </linearGradient>
  </defs>
  <rect width="1280" height="720" fill="url(#g)"/>
  <rect x="86" y="84" width="760" height="120" rx="18" fill="#ffffff" opacity="0.94"/>
  <rect x="122" y="124" width="620" height="38" rx="10" fill="#0f172a" opacity="0.9"/>
  <rect x="84" y="236" width="748" height="396" rx="22" fill="#ffffff" opacity="0.82"/>
  <rect x="122" y="278" width="600" height="18" rx="8" fill="#0f172a" opacity="0.42"/>
  <rect x="122" y="318" width="560" height="18" rx="8" fill="#0f172a" opacity="0.32"/>
  <rect x="122" y="358" width="520" height="18" rx="8" fill="#0f172a" opacity="0.28"/>
  <rect x="880" y="118" width="314" height="508" rx="26" fill="#e2e8f0"/>
  <circle cx="1037" cy="264" r="88" fill="#94a3b8"/>
  <rect x="944" y="366" width="188" height="222" rx="20" fill="#64748b"/>
  <rect x="128" y="548" width="222" height="58" rx="12" fill="#16a34a" opacity="0.88"/>
  <rect x="370" y="548" width="222" height="58" rx="12" fill="#38bdf8" opacity="0.7"/>
</svg>
